<?xml version="1.0" encoding="UTF-8" standalone="no"?>
<!DOCTYPE svg PUBLIC "-//W3C//DTD SVG 1.1//EN"
 "http://www.w3.org/Graphics/SVG/1.1/DTD/svg11.dtd">
<!-- Generated by graphviz version 2.47.3 (20210619.1520)
 -->
<!-- Title: dependencies Pages: 1 -->
<svg width="929pt" height="247pt"
 viewBox="0.00 0.00 929.00 246.80" xmlns="http://www.w3.org/2000/svg" xmlns:xlink="http://www.w3.org/1999/xlink">
<g id="graph0" class="graph" transform="scale(1 1) rotate(0) translate(4 242.8)">
<title>dependencies</title>
<polygon fill="white" stroke="transparent" points="-4,4 -4,-242.8 925,-242.8 925,4 -4,4"/>
<text text-anchor="middle" x="460.5" y="-8.2" font-family="sans-serif" font-size="14.00">dependencies</text>
<g id="clust1" class="cluster">
<title>cluster_CoreModule</title>
<polygon fill="none" stroke="black" stroke-dasharray="1,5" points="8,-32.8 8,-230.8 913,-230.8 913,-32.8 8,-32.8"/>
</g>
<g id="clust7" class="cluster">
<title>cluster_CoreModule_exports</title>
<polygon fill="none" stroke="black" points="16,-170.8 16,-222.8 905,-222.8 905,-170.8 16,-170.8"/>
</g>
<g id="clust2" class="cluster">
<title>cluster_CoreModule_declarations</title>
<polygon fill="none" stroke="black" points="216,-40.8 216,-92.8 612,-92.8 612,-40.8 216,-40.8"/>
</g>
<!-- FooterComponent -->
<g id="node1" class="node">
<title>FooterComponent</title>
<polygon fill="#ffffb3" stroke="black" points="603.88,-84.8 486.12,-84.8 486.12,-48.8 603.88,-48.8 603.88,-84.8"/>
<text text-anchor="middle" x="545" y="-62.6" font-family="Times,serif" font-size="14.00">FooterComponent</text>
</g>
<!-- CoreModule -->
<g id="node4" class="node">
<title>CoreModule</title>
<polygon fill="#8dd3c7" stroke="black" points="450.26,-149.8 447.26,-153.8 426.26,-153.8 423.26,-149.8 363.74,-149.8 363.74,-113.8 450.26,-113.8 450.26,-149.8"/>
<text text-anchor="middle" x="407" y="-127.6" font-family="Times,serif" font-size="14.00">CoreModule</text>
</g>
<!-- FooterComponent&#45;&gt;CoreModule -->
<g id="edge1" class="edge">
<title>FooterComponent&#45;&gt;CoreModule</title>
<path fill="none" stroke="black" d="M541.34,-84.81C541.34,-100.85 541.34,-121.8 541.34,-121.8 541.34,-121.8 460.62,-121.8 460.62,-121.8"/>
<polygon fill="black" stroke="black" points="460.62,-118.3 450.62,-121.8 460.62,-125.3 460.62,-118.3"/>
</g>
<!-- HeaderComponent -->
<g id="node2" class="node">
<title>HeaderComponent</title>
<polygon fill="#ffffb3" stroke="black" points="467.74,-84.8 346.26,-84.8 346.26,-48.8 467.74,-48.8 467.74,-84.8"/>
<text text-anchor="middle" x="407" y="-62.6" font-family="Times,serif" font-size="14.00">HeaderComponent</text>
</g>
<!-- HeaderComponent&#45;&gt;CoreModule -->
<g id="edge2" class="edge">
<title>HeaderComponent&#45;&gt;CoreModule</title>
<path fill="none" stroke="black" d="M407,-84.91C407,-84.91 407,-103.79 407,-103.79"/>
<polygon fill="black" stroke="black" points="403.5,-103.79 407,-113.79 410.5,-103.79 403.5,-103.79"/>
</g>
<!-- NavComponent -->
<g id="node3" class="node">
<title>NavComponent</title>
<polygon fill="#ffffb3" stroke="black" points="328.15,-84.8 223.85,-84.8 223.85,-48.8 328.15,-48.8 328.15,-84.8"/>
<text text-anchor="middle" x="276" y="-62.6" font-family="Times,serif" font-size="14.00">NavComponent</text>
</g>
<!-- NavComponent&#45;&gt;CoreModule -->
<g id="edge3" class="edge">
<title>NavComponent&#45;&gt;CoreModule</title>
<path fill="none" stroke="black" d="M287.04,-84.81C287.04,-100.85 287.04,-121.8 287.04,-121.8 287.04,-121.8 353.69,-121.8 353.69,-121.8"/>
<polygon fill="black" stroke="black" points="353.69,-125.3 363.69,-121.8 353.69,-118.3 353.69,-125.3"/>
</g>
<!-- FooterComponent  -->
<g id="node5" class="node">
<title>FooterComponent </title>
<polygon fill="#fb8072" stroke="black" points="896.88,-214.8 775.12,-214.8 775.12,-178.8 896.88,-178.8 896.88,-214.8"/>
<text text-anchor="middle" x="836" y="-192.6" font-family="Times,serif" font-size="14.00">FooterComponent </text>
</g>
<!-- CoreModule&#45;&gt;FooterComponent  -->
<g id="edge4" class="edge">
<title>CoreModule&#45;&gt;FooterComponent </title>
<path fill="none" stroke="black" stroke-dasharray="5,2" d="M450.5,-128.8C559.56,-128.8 836,-128.8 836,-128.8 836,-128.8 836,-168.58 836,-168.58"/>
<polygon fill="black" stroke="black" points="832.5,-168.58 836,-178.58 839.5,-168.58 832.5,-168.58"/>
</g>
<!-- GabaritsPagesModule  -->
<g id="node6" class="node">
<title>GabaritsPagesModule </title>
<polygon fill="#fb8072" stroke="black" points="757.63,-214.8 614.37,-214.8 614.37,-178.8 757.63,-178.8 757.63,-214.8"/>
<text text-anchor="middle" x="686" y="-192.6" font-family="Times,serif" font-size="14.00">GabaritsPagesModule </text>
</g>
<!-- CoreModule&#45;&gt;GabaritsPagesModule  -->
<g id="edge5" class="edge">
<title>CoreModule&#45;&gt;GabaritsPagesModule </title>
<path fill="none" stroke="black" stroke-dasharray="5,2" d="M450.29,-135.8C528.65,-135.8 686,-135.8 686,-135.8 686,-135.8 686,-168.5 686,-168.5"/>
<polygon fill="black" stroke="black" points="682.5,-168.5 686,-178.5 689.5,-168.5 682.5,-168.5"/>
</g>
<!-- HeaderComponent  -->
<g id="node7" class="node">
<title>HeaderComponent </title>
<polygon fill="#fb8072" stroke="black" points="596.74,-214.8 471.26,-214.8 471.26,-178.8 596.74,-178.8 596.74,-214.8"/>
<text text-anchor="middle" x="534" y="-192.6" font-family="Times,serif" font-size="14.00">HeaderComponent </text>
</g>
<!-- CoreModule&#45;&gt;HeaderComponent  -->
<g id="edge6" class="edge">
<title>CoreModule&#45;&gt;HeaderComponent </title>
<path fill="none" stroke="black" stroke-dasharray="5,2" d="M450.37,-142.8C465.48,-142.8 478.72,-142.8 478.72,-142.8 478.72,-142.8 478.72,-168.52 478.72,-168.52"/>
<polygon fill="black" stroke="black" points="475.22,-168.52 478.72,-178.52 482.22,-168.52 475.22,-168.52"/>
</g>
<!-- IconsModule  -->
<g id="node8" class="node">
<title>IconsModule </title>
<polygon fill="#fb8072" stroke="black" points="453.87,-214.8 360.13,-214.8 360.13,-178.8 453.87,-178.8 453.87,-214.8"/>
<text text-anchor="middle" x="407" y="-192.6" font-family="Times,serif" font-size="14.00">IconsModule </text>
</g>
<!-- CoreModule&#45;&gt;IconsModule  -->
<g id="edge7" class="edge">
<title>CoreModule&#45;&gt;IconsModule </title>
<path fill="none" stroke="black" stroke-dasharray="5,2" d="M407,-149.91C407,-149.91 407,-168.79 407,-168.79"/>
<polygon fill="black" stroke="black" points="403.5,-168.79 407,-178.79 410.5,-168.79 403.5,-168.79"/>
</g>
<!-- LoginModule  -->
<g id="node9" class="node">
<title>LoginModule </title>
<polygon fill="#fb8072" stroke="black" points="342.49,-214.8 245.51,-214.8 245.51,-178.8 342.49,-178.8 342.49,-214.8"/>
<text text-anchor="middle" x="294" y="-192.6" font-family="Times,serif" font-size="14.00">LoginModule </text>
</g>
<!-- CoreModule&#45;&gt;LoginModule  -->
<g id="edge8" class="edge">
<title>CoreModule&#45;&gt;LoginModule </title>
<path fill="none" stroke="black" stroke-dasharray="5,2" d="M363.63,-142.8C348.53,-142.8 335.29,-142.8 335.29,-142.8 335.29,-142.8 335.29,-168.52 335.29,-168.52"/>
<polygon fill="black" stroke="black" points="331.79,-168.52 335.29,-178.52 338.79,-168.52 331.79,-168.52"/>
</g>
<!-- NavComponent  -->
<g id="node10" class="node">
<title>NavComponent </title>
<polygon fill="#fb8072" stroke="black" points="228.15,-214.8 119.85,-214.8 119.85,-178.8 228.15,-178.8 228.15,-214.8"/>
<text text-anchor="middle" x="174" y="-192.6" font-family="Times,serif" font-size="14.00">NavComponent </text>
</g>
<!-- CoreModule&#45;&gt;NavComponent  -->
<g id="edge9" class="edge">
<title>CoreModule&#45;&gt;NavComponent </title>
<path fill="none" stroke="black" stroke-dasharray="5,2" d="M363.59,-135.8C295.63,-135.8 171.8,-135.8 171.8,-135.8 171.8,-135.8 171.8,-168.5 171.8,-168.5"/>
<polygon fill="black" stroke="black" points="168.3,-168.5 171.8,-178.5 175.3,-168.5 168.3,-168.5"/>
</g>
<!-- UiModule  -->
<g id="node11" class="node">
<title>UiModule </title>
<polygon fill="#fb8072" stroke="black" points="101.55,-214.8 24.45,-214.8 24.45,-178.8 101.55,-178.8 101.55,-214.8"/>
<text text-anchor="middle" x="63" y="-192.6" font-family="Times,serif" font-size="14.00">UiModule </text>
</g>
<!-- CoreModule&#45;&gt;UiModule  -->
<g id="edge10" class="edge">
<title>CoreModule&#45;&gt;UiModule </title>
<path fill="none" stroke="black" stroke-dasharray="5,2" d="M363.43,-128.8C270.87,-128.8 63,-128.8 63,-128.8 63,-128.8 63,-168.58 63,-168.58"/>
<polygon fill="black" stroke="black" points="59.5,-168.58 63,-178.58 66.5,-168.58 59.5,-168.58"/>
</g>
</g>
</svg>
