<?xml version="1.0" encoding="UTF-8" standalone="no"?>
<!DOCTYPE svg PUBLIC "-//W3C//DTD SVG 1.1//EN"
 "http://www.w3.org/Graphics/SVG/1.1/DTD/svg11.dtd">
<!-- Generated by graphviz version 2.47.3 (20210619.1520)
 -->
<!-- Title: dependencies Pages: 1 -->
<svg width="807pt" height="247pt"
 viewBox="0.00 0.00 807.00 246.80" xmlns="http://www.w3.org/2000/svg" xmlns:xlink="http://www.w3.org/1999/xlink">
<g id="graph0" class="graph" transform="scale(1 1) rotate(0) translate(4 242.8)">
<title>dependencies</title>
<polygon fill="white" stroke="transparent" points="-4,4 -4,-242.8 803,-242.8 803,4 -4,4"/>
<text text-anchor="middle" x="399.5" y="-8.2" font-family="sans-serif" font-size="14.00">dependencies</text>
<g id="clust1" class="cluster">
<title>cluster_SharedModule</title>
<polygon fill="none" stroke="black" stroke-dasharray="1,5" points="8,-32.8 8,-230.8 791,-230.8 791,-32.8 8,-32.8"/>
</g>
<g id="clust8" class="cluster">
<title>cluster_SharedModule_exports</title>
<polygon fill="none" stroke="black" points="16,-170.8 16,-222.8 783,-222.8 783,-170.8 16,-170.8"/>
</g>
<g id="clust2" class="cluster">
<title>cluster_SharedModule_declarations</title>
<polygon fill="none" stroke="black" points="150,-40.8 150,-92.8 632,-92.8 632,-40.8 150,-40.8"/>
</g>
<!-- BtnComponent -->
<g id="node1" class="node">
<title>BtnComponent</title>
<polygon fill="#ffffb3" stroke="black" points="623.56,-84.8 522.44,-84.8 522.44,-48.8 623.56,-48.8 623.56,-84.8"/>
<text text-anchor="middle" x="573" y="-62.6" font-family="Times,serif" font-size="14.00">BtnComponent</text>
</g>
<!-- SharedModule -->
<g id="node5" class="node">
<title>SharedModule</title>
<polygon fill="#8dd3c7" stroke="black" points="436.42,-149.8 433.42,-153.8 412.42,-153.8 409.42,-149.8 337.58,-149.8 337.58,-113.8 436.42,-113.8 436.42,-149.8"/>
<text text-anchor="middle" x="387" y="-127.6" font-family="Times,serif" font-size="14.00">SharedModule</text>
</g>
<!-- BtnComponent&#45;&gt;SharedModule -->
<g id="edge1" class="edge">
<title>BtnComponent&#45;&gt;SharedModule</title>
<path fill="none" stroke="black" d="M573,-84.83C573,-101.2 573,-122.8 573,-122.8 573,-122.8 446.36,-122.8 446.36,-122.8"/>
<polygon fill="black" stroke="black" points="446.36,-119.3 436.36,-122.8 446.36,-126.3 446.36,-119.3"/>
</g>
<!-- StateDirective -->
<g id="node2" class="node">
<title>StateDirective</title>
<polygon fill="#ffffb3" stroke="black" points="504.08,-84.8 407.92,-84.8 407.92,-48.8 504.08,-48.8 504.08,-84.8"/>
<text text-anchor="middle" x="456" y="-62.6" font-family="Times,serif" font-size="14.00">StateDirective</text>
</g>
<!-- StateDirective&#45;&gt;SharedModule -->
<g id="edge2" class="edge">
<title>StateDirective&#45;&gt;SharedModule</title>
<path fill="none" stroke="black" d="M422.09,-84.91C422.09,-84.91 422.09,-103.79 422.09,-103.79"/>
<polygon fill="black" stroke="black" points="418.59,-103.79 422.09,-113.79 425.59,-103.79 418.59,-103.79"/>
</g>
<!-- TableLightComponent -->
<g id="node3" class="node">
<title>TableLightComponent</title>
<polygon fill="#ffffb3" stroke="black" points="389.54,-84.8 246.46,-84.8 246.46,-48.8 389.54,-48.8 389.54,-84.8"/>
<text text-anchor="middle" x="318" y="-62.6" font-family="Times,serif" font-size="14.00">TableLightComponent</text>
</g>
<!-- TableLightComponent&#45;&gt;SharedModule -->
<g id="edge3" class="edge">
<title>TableLightComponent&#45;&gt;SharedModule</title>
<path fill="none" stroke="black" d="M363.78,-84.91C363.78,-84.91 363.78,-103.79 363.78,-103.79"/>
<polygon fill="black" stroke="black" points="360.28,-103.79 363.78,-113.79 367.28,-103.79 360.28,-103.79"/>
</g>
<!-- TotalPipe -->
<g id="node4" class="node">
<title>TotalPipe</title>
<polygon fill="#ffffb3" stroke="black" points="228.44,-84.8 157.56,-84.8 157.56,-48.8 228.44,-48.8 228.44,-84.8"/>
<text text-anchor="middle" x="193" y="-62.6" font-family="Times,serif" font-size="14.00">TotalPipe</text>
</g>
<!-- TotalPipe&#45;&gt;SharedModule -->
<g id="edge4" class="edge">
<title>TotalPipe&#45;&gt;SharedModule</title>
<path fill="none" stroke="black" d="M193,-84.83C193,-101.2 193,-122.8 193,-122.8 193,-122.8 327.54,-122.8 327.54,-122.8"/>
<polygon fill="black" stroke="black" points="327.54,-126.3 337.54,-122.8 327.54,-119.3 327.54,-126.3"/>
</g>
<!-- BtnComponent  -->
<g id="node6" class="node">
<title>BtnComponent </title>
<polygon fill="#fb8072" stroke="black" points="774.56,-214.8 669.44,-214.8 669.44,-178.8 774.56,-178.8 774.56,-214.8"/>
<text text-anchor="middle" x="722" y="-192.6" font-family="Times,serif" font-size="14.00">BtnComponent </text>
</g>
<!-- SharedModule&#45;&gt;BtnComponent  -->
<g id="edge5" class="edge">
<title>SharedModule&#45;&gt;BtnComponent </title>
<path fill="none" stroke="black" stroke-dasharray="5,2" d="M436.43,-131.8C529.62,-131.8 722,-131.8 722,-131.8 722,-131.8 722,-168.69 722,-168.69"/>
<polygon fill="black" stroke="black" points="718.5,-168.69 722,-178.69 725.5,-168.69 718.5,-168.69"/>
</g>
<!-- GabaritsPagesModule  -->
<g id="node7" class="node">
<title>GabaritsPagesModule </title>
<polygon fill="#fb8072" stroke="black" points="651.63,-214.8 508.37,-214.8 508.37,-178.8 651.63,-178.8 651.63,-214.8"/>
<text text-anchor="middle" x="580" y="-192.6" font-family="Times,serif" font-size="14.00">GabaritsPagesModule </text>
</g>
<!-- SharedModule&#45;&gt;GabaritsPagesModule  -->
<g id="edge6" class="edge">
<title>SharedModule&#45;&gt;GabaritsPagesModule </title>
<path fill="none" stroke="black" stroke-dasharray="5,2" d="M436.25,-140.8C472.44,-140.8 515.33,-140.8 515.33,-140.8 515.33,-140.8 515.33,-168.77 515.33,-168.77"/>
<polygon fill="black" stroke="black" points="511.83,-168.77 515.33,-178.77 518.83,-168.77 511.83,-168.77"/>
</g>
<!-- IconsModule  -->
<g id="node8" class="node">
<title>IconsModule </title>
<polygon fill="#fb8072" stroke="black" points="490.87,-214.8 397.13,-214.8 397.13,-178.8 490.87,-178.8 490.87,-214.8"/>
<text text-anchor="middle" x="444" y="-192.6" font-family="Times,serif" font-size="14.00">IconsModule </text>
</g>
<!-- SharedModule&#45;&gt;IconsModule  -->
<g id="edge7" class="edge">
<title>SharedModule&#45;&gt;IconsModule </title>
<path fill="none" stroke="black" stroke-dasharray="5,2" d="M416.76,-149.91C416.76,-149.91 416.76,-168.79 416.76,-168.79"/>
<polygon fill="black" stroke="black" points="413.26,-168.79 416.76,-178.79 420.26,-168.79 413.26,-168.79"/>
</g>
<!-- StateDirective  -->
<g id="node9" class="node">
<title>StateDirective </title>
<polygon fill="#fb8072" stroke="black" points="379.58,-214.8 280.42,-214.8 280.42,-178.8 379.58,-178.8 379.58,-214.8"/>
<text text-anchor="middle" x="330" y="-192.6" font-family="Times,serif" font-size="14.00">StateDirective </text>
</g>
<!-- SharedModule&#45;&gt;StateDirective  -->
<g id="edge8" class="edge">
<title>SharedModule&#45;&gt;StateDirective </title>
<path fill="none" stroke="black" stroke-dasharray="5,2" d="M358.79,-149.91C358.79,-149.91 358.79,-168.79 358.79,-168.79"/>
<polygon fill="black" stroke="black" points="355.29,-168.79 358.79,-178.79 362.29,-168.79 355.29,-168.79"/>
</g>
<!-- TableLightComponent  -->
<g id="node10" class="node">
<title>TableLightComponent </title>
<polygon fill="#fb8072" stroke="black" points="262.54,-214.8 115.46,-214.8 115.46,-178.8 262.54,-178.8 262.54,-214.8"/>
<text text-anchor="middle" x="189" y="-192.6" font-family="Times,serif" font-size="14.00">TableLightComponent </text>
</g>
<!-- SharedModule&#45;&gt;TableLightComponent  -->
<g id="edge9" class="edge">
<title>SharedModule&#45;&gt;TableLightComponent </title>
<path fill="none" stroke="black" stroke-dasharray="5,2" d="M337.62,-140.8C299.91,-140.8 254.38,-140.8 254.38,-140.8 254.38,-140.8 254.38,-168.77 254.38,-168.77"/>
<polygon fill="black" stroke="black" points="250.88,-168.77 254.38,-178.77 257.88,-168.77 250.88,-168.77"/>
</g>
<!-- TotalPipe  -->
<g id="node11" class="node">
<title>TotalPipe </title>
<polygon fill="#fb8072" stroke="black" points="97.94,-214.8 24.06,-214.8 24.06,-178.8 97.94,-178.8 97.94,-214.8"/>
<text text-anchor="middle" x="61" y="-192.6" font-family="Times,serif" font-size="14.00">TotalPipe </text>
</g>
<!-- SharedModule&#45;&gt;TotalPipe  -->
<g id="edge10" class="edge">
<title>SharedModule&#45;&gt;TotalPipe </title>
<path fill="none" stroke="black" stroke-dasharray="5,2" d="M337.49,-131.8C246.29,-131.8 61,-131.8 61,-131.8 61,-131.8 61,-168.69 61,-168.69"/>
<polygon fill="black" stroke="black" points="57.5,-168.69 61,-178.69 64.5,-168.69 57.5,-168.69"/>
</g>
</g>
</svg>
