<?xml version="1.0" encoding="UTF-8" standalone="no"?>
<!DOCTYPE svg PUBLIC "-//W3C//DTD SVG 1.1//EN"
 "http://www.w3.org/Graphics/SVG/1.1/DTD/svg11.dtd">
<!-- Generated by graphviz version 2.47.3 (20210619.1520)
 -->
<!-- Title: dependencies Pages: 1 -->
<svg width="440pt" height="247pt"
 viewBox="0.00 0.00 440.00 246.80" xmlns="http://www.w3.org/2000/svg" xmlns:xlink="http://www.w3.org/1999/xlink">
<g id="graph0" class="graph" transform="scale(1 1) rotate(0) translate(4 242.8)">
<title>dependencies</title>
<polygon fill="white" stroke="transparent" points="-4,4 -4,-242.8 436,-242.8 436,4 -4,4"/>
<text text-anchor="middle" x="216" y="-8.2" font-family="sans-serif" font-size="14.00">dependencies</text>
<g id="clust1" class="cluster">
<title>cluster_GabaritsPagesModule</title>
<polygon fill="none" stroke="black" stroke-dasharray="1,5" points="8,-32.8 8,-230.8 424,-230.8 424,-32.8 8,-32.8"/>
</g>
<g id="clust2" class="cluster">
<title>cluster_GabaritsPagesModule_declarations</title>
<polygon fill="none" stroke="black" points="20,-40.8 20,-92.8 413,-92.8 413,-40.8 20,-40.8"/>
</g>
<g id="clust6" class="cluster">
<title>cluster_GabaritsPagesModule_exports</title>
<polygon fill="none" stroke="black" points="16,-170.8 16,-222.8 416,-222.8 416,-170.8 16,-170.8"/>
</g>
<!-- GabaritContainerComponent -->
<g id="node1" class="node">
<title>GabaritContainerComponent</title>
<polygon fill="#ffffb3" stroke="black" points="405.02,-84.8 226.98,-84.8 226.98,-48.8 405.02,-48.8 405.02,-84.8"/>
<text text-anchor="middle" x="316" y="-62.6" font-family="Times,serif" font-size="14.00">GabaritContainerComponent</text>
</g>
<!-- GabaritsPagesModule -->
<g id="node3" class="node">
<title>GabaritsPagesModule</title>
<polygon fill="#8dd3c7" stroke="black" points="188.63,-149.8 185.63,-153.8 164.63,-153.8 161.63,-149.8 49.37,-149.8 49.37,-113.8 188.63,-113.8 188.63,-149.8"/>
<text text-anchor="middle" x="119" y="-127.6" font-family="Times,serif" font-size="14.00">GabaritsPagesModule</text>
</g>
<!-- GabaritContainerComponent&#45;&gt;GabaritsPagesModule -->
<g id="edge1" class="edge">
<title>GabaritContainerComponent&#45;&gt;GabaritsPagesModule</title>
<path fill="none" stroke="black" d="M345.75,-84.82C345.75,-102.17 345.75,-125.8 345.75,-125.8 345.75,-125.8 198.88,-125.8 198.88,-125.8"/>
<polygon fill="black" stroke="black" points="198.88,-122.3 188.88,-125.8 198.88,-129.3 198.88,-122.3"/>
</g>
<!-- GabaritFullWidthComponent -->
<g id="node2" class="node">
<title>GabaritFullWidthComponent</title>
<polygon fill="#ffffb3" stroke="black" points="208.37,-84.8 27.63,-84.8 27.63,-48.8 208.37,-48.8 208.37,-84.8"/>
<text text-anchor="middle" x="118" y="-62.6" font-family="Times,serif" font-size="14.00">GabaritFullWidthComponent</text>
</g>
<!-- GabaritFullWidthComponent&#45;&gt;GabaritsPagesModule -->
<g id="edge2" class="edge">
<title>GabaritFullWidthComponent&#45;&gt;GabaritsPagesModule</title>
<path fill="none" stroke="black" d="M119,-84.91C119,-84.91 119,-103.79 119,-103.79"/>
<polygon fill="black" stroke="black" points="115.5,-103.79 119,-113.79 122.5,-103.79 115.5,-103.79"/>
</g>
<!-- GabaritContainerComponent  -->
<g id="node4" class="node">
<title>GabaritContainerComponent </title>
<polygon fill="#fb8072" stroke="black" points="408.02,-214.8 225.98,-214.8 225.98,-178.8 408.02,-178.8 408.02,-214.8"/>
<text text-anchor="middle" x="317" y="-192.6" font-family="Times,serif" font-size="14.00">GabaritContainerComponent </text>
</g>
<!-- GabaritsPagesModule&#45;&gt;GabaritContainerComponent  -->
<g id="edge3" class="edge">
<title>GabaritsPagesModule&#45;&gt;GabaritContainerComponent </title>
<path fill="none" stroke="black" stroke-dasharray="5,2" d="M188.96,-137.8C234.79,-137.8 286.25,-137.8 286.25,-137.8 286.25,-137.8 286.25,-168.78 286.25,-168.78"/>
<polygon fill="black" stroke="black" points="282.75,-168.78 286.25,-178.78 289.75,-168.78 282.75,-168.78"/>
</g>
<!-- GabaritFullWidthComponent  -->
<g id="node5" class="node">
<title>GabaritFullWidthComponent </title>
<polygon fill="#fb8072" stroke="black" points="208.37,-214.8 23.63,-214.8 23.63,-178.8 208.37,-178.8 208.37,-214.8"/>
<text text-anchor="middle" x="116" y="-192.6" font-family="Times,serif" font-size="14.00">GabaritFullWidthComponent </text>
</g>
<!-- GabaritsPagesModule&#45;&gt;GabaritFullWidthComponent  -->
<g id="edge4" class="edge">
<title>GabaritsPagesModule&#45;&gt;GabaritFullWidthComponent </title>
<path fill="none" stroke="black" stroke-dasharray="5,2" d="M119,-149.91C119,-149.91 119,-168.79 119,-168.79"/>
<polygon fill="black" stroke="black" points="115.5,-168.79 119,-178.79 122.5,-168.79 115.5,-168.79"/>
</g>
</g>
</svg>
