<?xml version="1.0" encoding="UTF-8" standalone="no"?>
<!DOCTYPE svg PUBLIC "-//W3C//DTD SVG 1.1//EN"
 "http://www.w3.org/Graphics/SVG/1.1/DTD/svg11.dtd">
<!-- Generated by graphviz version 2.47.3 (20210619.1520)
 -->
<!-- Title: dependencies Pages: 1 -->
<svg width="1353pt" height="174pt"
 viewBox="0.00 0.00 1353.00 173.80" xmlns="http://www.w3.org/2000/svg" xmlns:xlink="http://www.w3.org/1999/xlink">
<g id="graph0" class="graph" transform="scale(1 1) rotate(0) translate(4 169.8)">
<title>dependencies</title>
<polygon fill="white" stroke="transparent" points="-4,4 -4,-169.8 1349,-169.8 1349,4 -4,4"/>
<text text-anchor="middle" x="672.5" y="-8.2" font-family="sans-serif" font-size="14.00">dependencies</text>
<g id="clust1" class="cluster">
<title>cluster_LoginModule</title>
<polygon fill="none" stroke="black" stroke-dasharray="1,5" points="8,-32.8 8,-157.8 1337,-157.8 1337,-32.8 8,-32.8"/>
</g>
<g id="clust9" class="cluster">
<title>cluster_LoginModule_imports</title>
<polygon fill="none" stroke="black" points="1017,-40.8 1017,-92.8 1329,-92.8 1329,-40.8 1017,-40.8"/>
</g>
<g id="clust2" class="cluster">
<title>cluster_LoginModule_declarations</title>
<polygon fill="none" stroke="black" points="16,-40.8 16,-92.8 1009,-92.8 1009,-40.8 16,-40.8"/>
</g>
<!-- PageForgotComponent -->
<g id="node1" class="node">
<title>PageForgotComponent</title>
<polygon fill="#ffffb3" stroke="black" points="1000.88,-84.8 855.12,-84.8 855.12,-48.8 1000.88,-48.8 1000.88,-84.8"/>
<text text-anchor="middle" x="928" y="-62.6" font-family="Times,serif" font-size="14.00">PageForgotComponent</text>
</g>
<!-- LoginModule -->
<g id="node7" class="node">
<title>LoginModule</title>
<polygon fill="#8dd3c7" stroke="black" points="732.49,-149.8 729.49,-153.8 708.49,-153.8 705.49,-149.8 639.51,-149.8 639.51,-113.8 732.49,-113.8 732.49,-149.8"/>
<text text-anchor="middle" x="686" y="-127.6" font-family="Times,serif" font-size="14.00">LoginModule</text>
</g>
<!-- PageForgotComponent&#45;&gt;LoginModule -->
<g id="edge1" class="edge">
<title>PageForgotComponent&#45;&gt;LoginModule</title>
<path fill="none" stroke="black" d="M928,-84.83C928,-101.2 928,-122.8 928,-122.8 928,-122.8 742.66,-122.8 742.66,-122.8"/>
<polygon fill="black" stroke="black" points="742.66,-119.3 732.66,-122.8 742.66,-126.3 742.66,-119.3"/>
</g>
<!-- PageResetComponent -->
<g id="node2" class="node">
<title>PageResetComponent</title>
<polygon fill="#ffffb3" stroke="black" points="836.65,-84.8 697.35,-84.8 697.35,-48.8 836.65,-48.8 836.65,-84.8"/>
<text text-anchor="middle" x="767" y="-62.6" font-family="Times,serif" font-size="14.00">PageResetComponent</text>
</g>
<!-- PageResetComponent&#45;&gt;LoginModule -->
<g id="edge2" class="edge">
<title>PageResetComponent&#45;&gt;LoginModule</title>
<path fill="none" stroke="black" d="M714.84,-84.91C714.84,-84.91 714.84,-103.79 714.84,-103.79"/>
<polygon fill="black" stroke="black" points="711.34,-103.79 714.84,-113.79 718.34,-103.79 711.34,-103.79"/>
</g>
<!-- PageSignInComponent -->
<g id="node3" class="node">
<title>PageSignInComponent</title>
<polygon fill="#ffffb3" stroke="black" points="678.88,-84.8 533.12,-84.8 533.12,-48.8 678.88,-48.8 678.88,-84.8"/>
<text text-anchor="middle" x="606" y="-62.6" font-family="Times,serif" font-size="14.00">PageSignInComponent</text>
</g>
<!-- PageSignInComponent&#45;&gt;LoginModule -->
<g id="edge3" class="edge">
<title>PageSignInComponent&#45;&gt;LoginModule</title>
<path fill="none" stroke="black" d="M659.22,-84.91C659.22,-84.91 659.22,-103.79 659.22,-103.79"/>
<polygon fill="black" stroke="black" points="655.72,-103.79 659.22,-113.79 662.72,-103.79 655.72,-103.79"/>
</g>
<!-- PageSignUpComponent -->
<g id="node4" class="node">
<title>PageSignUpComponent</title>
<polygon fill="#ffffb3" stroke="black" points="514.82,-84.8 363.18,-84.8 363.18,-48.8 514.82,-48.8 514.82,-84.8"/>
<text text-anchor="middle" x="439" y="-62.6" font-family="Times,serif" font-size="14.00">PageSignUpComponent</text>
</g>
<!-- PageSignUpComponent&#45;&gt;LoginModule -->
<g id="edge4" class="edge">
<title>PageSignUpComponent&#45;&gt;LoginModule</title>
<path fill="none" stroke="black" d="M439,-84.83C439,-101.2 439,-122.8 439,-122.8 439,-122.8 629.25,-122.8 629.25,-122.8"/>
<polygon fill="black" stroke="black" points="629.25,-126.3 639.25,-122.8 629.25,-119.3 629.25,-126.3"/>
</g>
<!-- SignInFormComponent -->
<g id="node5" class="node">
<title>SignInFormComponent</title>
<polygon fill="#ffffb3" stroke="black" points="345.5,-84.8 196.5,-84.8 196.5,-48.8 345.5,-48.8 345.5,-84.8"/>
<text text-anchor="middle" x="271" y="-62.6" font-family="Times,serif" font-size="14.00">SignInFormComponent</text>
</g>
<!-- SignInFormComponent&#45;&gt;LoginModule -->
<g id="edge5" class="edge">
<title>SignInFormComponent&#45;&gt;LoginModule</title>
<path fill="none" stroke="black" d="M271,-84.91C271,-104.14 271,-131.8 271,-131.8 271,-131.8 629.2,-131.8 629.2,-131.8"/>
<polygon fill="black" stroke="black" points="629.2,-135.3 639.2,-131.8 629.2,-128.3 629.2,-135.3"/>
</g>
<!-- SignUpFormComponent -->
<g id="node6" class="node">
<title>SignUpFormComponent</title>
<polygon fill="#ffffb3" stroke="black" points="178.45,-84.8 23.55,-84.8 23.55,-48.8 178.45,-48.8 178.45,-84.8"/>
<text text-anchor="middle" x="101" y="-62.6" font-family="Times,serif" font-size="14.00">SignUpFormComponent</text>
</g>
<!-- SignUpFormComponent&#45;&gt;LoginModule -->
<g id="edge6" class="edge">
<title>SignUpFormComponent&#45;&gt;LoginModule</title>
<path fill="none" stroke="black" d="M101,-85.09C101,-107.01 101,-140.8 101,-140.8 101,-140.8 629.12,-140.8 629.12,-140.8"/>
<polygon fill="black" stroke="black" points="629.12,-144.3 639.12,-140.8 629.12,-137.3 629.12,-144.3"/>
</g>
<!-- GabaritsPagesModule -->
<g id="node8" class="node">
<title>GabaritsPagesModule</title>
<polygon fill="#8dd3c7" stroke="black" points="1320.63,-84.8 1317.63,-88.8 1296.63,-88.8 1293.63,-84.8 1181.37,-84.8 1181.37,-48.8 1320.63,-48.8 1320.63,-84.8"/>
<text text-anchor="middle" x="1251" y="-62.6" font-family="Times,serif" font-size="14.00">GabaritsPagesModule</text>
</g>
<!-- GabaritsPagesModule&#45;&gt;LoginModule -->
<g id="edge7" class="edge">
<title>GabaritsPagesModule&#45;&gt;LoginModule</title>
<path fill="none" stroke="black" d="M1251,-85.09C1251,-107.01 1251,-140.8 1251,-140.8 1251,-140.8 742.72,-140.8 742.72,-140.8"/>
<polygon fill="black" stroke="black" points="742.72,-137.3 732.72,-140.8 742.72,-144.3 742.72,-137.3"/>
</g>
<!-- LoginRoutingModule -->
<g id="node9" class="node">
<title>LoginRoutingModule</title>
<polygon fill="#8dd3c7" stroke="black" points="1163.11,-84.8 1160.11,-88.8 1139.11,-88.8 1136.11,-84.8 1024.89,-84.8 1024.89,-48.8 1163.11,-48.8 1163.11,-84.8"/>
<text text-anchor="middle" x="1094" y="-62.6" font-family="Times,serif" font-size="14.00">LoginRoutingModule</text>
</g>
<!-- LoginRoutingModule&#45;&gt;LoginModule -->
<g id="edge8" class="edge">
<title>LoginRoutingModule&#45;&gt;LoginModule</title>
<path fill="none" stroke="black" d="M1094,-84.91C1094,-104.14 1094,-131.8 1094,-131.8 1094,-131.8 742.8,-131.8 742.8,-131.8"/>
<polygon fill="black" stroke="black" points="742.8,-128.3 732.8,-131.8 742.8,-135.3 742.8,-128.3"/>
</g>
</g>
</svg>
