<?xml version="1.0" encoding="UTF-8" standalone="no"?>
<!DOCTYPE svg PUBLIC "-//W3C//DTD SVG 1.1//EN"
 "http://www.w3.org/Graphics/SVG/1.1/DTD/svg11.dtd">
<!-- Generated by graphviz version 2.47.3 (20210619.1520)
 -->
<!-- Title: dependencies Pages: 1 -->
<svg width="1035pt" height="174pt"
 viewBox="0.00 0.00 1035.00 173.80" xmlns="http://www.w3.org/2000/svg" xmlns:xlink="http://www.w3.org/1999/xlink">
<g id="graph0" class="graph" transform="scale(1 1) rotate(0) translate(4 169.8)">
<title>dependencies</title>
<polygon fill="white" stroke="transparent" points="-4,4 -4,-169.8 1031,-169.8 1031,4 -4,4"/>
<text text-anchor="middle" x="513.5" y="-8.2" font-family="sans-serif" font-size="14.00">dependencies</text>
<g id="clust1" class="cluster">
<title>cluster_OrdersModule</title>
<polygon fill="none" stroke="black" stroke-dasharray="1,5" points="8,-32.8 8,-157.8 1019,-157.8 1019,-32.8 8,-32.8"/>
</g>
<g id="clust2" class="cluster">
<title>cluster_OrdersModule_declarations</title>
<polygon fill="none" stroke="black" points="299,-40.8 299,-92.8 1011,-92.8 1011,-40.8 299,-40.8"/>
</g>
<g id="clust7" class="cluster">
<title>cluster_OrdersModule_imports</title>
<polygon fill="none" stroke="black" points="16,-40.8 16,-92.8 291,-92.8 291,-40.8 16,-40.8"/>
</g>
<!-- FormOrderComponent -->
<g id="node1" class="node">
<title>FormOrderComponent</title>
<polygon fill="#ffffb3" stroke="black" points="1003.31,-84.8 858.69,-84.8 858.69,-48.8 1003.31,-48.8 1003.31,-84.8"/>
<text text-anchor="middle" x="931" y="-62.6" font-family="Times,serif" font-size="14.00">FormOrderComponent</text>
</g>
<!-- OrdersModule -->
<g id="node5" class="node">
<title>OrdersModule</title>
<polygon fill="#8dd3c7" stroke="black" points="531.64,-149.8 528.64,-153.8 507.64,-153.8 504.64,-149.8 434.36,-149.8 434.36,-113.8 531.64,-113.8 531.64,-149.8"/>
<text text-anchor="middle" x="483" y="-127.6" font-family="Times,serif" font-size="14.00">OrdersModule</text>
</g>
<!-- FormOrderComponent&#45;&gt;OrdersModule -->
<g id="edge1" class="edge">
<title>FormOrderComponent&#45;&gt;OrdersModule</title>
<path fill="none" stroke="black" d="M931,-85.08C931,-106.12 931,-137.8 931,-137.8 931,-137.8 541.8,-137.8 541.8,-137.8"/>
<polygon fill="black" stroke="black" points="541.8,-134.3 531.8,-137.8 541.8,-141.3 541.8,-134.3"/>
</g>
<!-- PageAddOrderComponent -->
<g id="node2" class="node">
<title>PageAddOrderComponent</title>
<polygon fill="#ffffb3" stroke="black" points="840.79,-84.8 675.21,-84.8 675.21,-48.8 840.79,-48.8 840.79,-84.8"/>
<text text-anchor="middle" x="758" y="-62.6" font-family="Times,serif" font-size="14.00">PageAddOrderComponent</text>
</g>
<!-- PageAddOrderComponent&#45;&gt;OrdersModule -->
<g id="edge2" class="edge">
<title>PageAddOrderComponent&#45;&gt;OrdersModule</title>
<path fill="none" stroke="black" d="M758,-84.82C758,-102.17 758,-125.8 758,-125.8 758,-125.8 541.85,-125.8 541.85,-125.8"/>
<polygon fill="black" stroke="black" points="541.85,-122.3 531.85,-125.8 541.85,-129.3 541.85,-122.3"/>
</g>
<!-- PageEditOrderComponent -->
<g id="node3" class="node">
<title>PageEditOrderComponent</title>
<polygon fill="#ffffb3" stroke="black" points="657.02,-84.8 492.98,-84.8 492.98,-48.8 657.02,-48.8 657.02,-84.8"/>
<text text-anchor="middle" x="575" y="-62.6" font-family="Times,serif" font-size="14.00">PageEditOrderComponent</text>
</g>
<!-- PageEditOrderComponent&#45;&gt;OrdersModule -->
<g id="edge3" class="edge">
<title>PageEditOrderComponent&#45;&gt;OrdersModule</title>
<path fill="none" stroke="black" d="M512.28,-84.91C512.28,-84.91 512.28,-103.79 512.28,-103.79"/>
<polygon fill="black" stroke="black" points="508.78,-103.79 512.28,-113.79 515.78,-103.79 508.78,-103.79"/>
</g>
<!-- PageListOrdersComponent -->
<g id="node4" class="node">
<title>PageListOrdersComponent</title>
<polygon fill="#ffffb3" stroke="black" points="475.41,-84.8 306.59,-84.8 306.59,-48.8 475.41,-48.8 475.41,-84.8"/>
<text text-anchor="middle" x="391" y="-62.6" font-family="Times,serif" font-size="14.00">PageListOrdersComponent</text>
</g>
<!-- PageListOrdersComponent&#45;&gt;OrdersModule -->
<g id="edge4" class="edge">
<title>PageListOrdersComponent&#45;&gt;OrdersModule</title>
<path fill="none" stroke="black" d="M454.69,-84.91C454.69,-84.91 454.69,-103.79 454.69,-103.79"/>
<polygon fill="black" stroke="black" points="451.19,-103.79 454.69,-113.79 458.19,-103.79 451.19,-103.79"/>
</g>
<!-- OrdersRoutingModule -->
<g id="node6" class="node">
<title>OrdersRoutingModule</title>
<polygon fill="#8dd3c7" stroke="black" points="283.25,-84.8 280.25,-88.8 259.25,-88.8 256.25,-84.8 140.75,-84.8 140.75,-48.8 283.25,-48.8 283.25,-84.8"/>
<text text-anchor="middle" x="212" y="-62.6" font-family="Times,serif" font-size="14.00">OrdersRoutingModule</text>
</g>
<!-- OrdersRoutingModule&#45;&gt;OrdersModule -->
<g id="edge5" class="edge">
<title>OrdersRoutingModule&#45;&gt;OrdersModule</title>
<path fill="none" stroke="black" d="M212,-84.82C212,-102.17 212,-125.8 212,-125.8 212,-125.8 424.24,-125.8 424.24,-125.8"/>
<polygon fill="black" stroke="black" points="424.24,-129.3 434.24,-125.8 424.24,-122.3 424.24,-129.3"/>
</g>
<!-- SharedModule -->
<g id="node7" class="node">
<title>SharedModule</title>
<polygon fill="#8dd3c7" stroke="black" points="122.42,-84.8 119.42,-88.8 98.42,-88.8 95.42,-84.8 23.58,-84.8 23.58,-48.8 122.42,-48.8 122.42,-84.8"/>
<text text-anchor="middle" x="73" y="-62.6" font-family="Times,serif" font-size="14.00">SharedModule</text>
</g>
<!-- SharedModule&#45;&gt;OrdersModule -->
<g id="edge6" class="edge">
<title>SharedModule&#45;&gt;OrdersModule</title>
<path fill="none" stroke="black" d="M73,-85.08C73,-106.12 73,-137.8 73,-137.8 73,-137.8 424.36,-137.8 424.36,-137.8"/>
<polygon fill="black" stroke="black" points="424.36,-141.3 434.36,-137.8 424.36,-134.3 424.36,-141.3"/>
</g>
</g>
</svg>
