<?xml version="1.0" encoding="UTF-8" standalone="no"?>
<!DOCTYPE svg PUBLIC "-//W3C//DTD SVG 1.1//EN"
 "http://www.w3.org/Graphics/SVG/1.1/DTD/svg11.dtd">
<!-- Generated by graphviz version 2.47.3 (20210619.1520)
 -->
<!-- Title: dependencies Pages: 1 -->
<svg width="878pt" height="174pt"
 viewBox="0.00 0.00 878.00 173.80" xmlns="http://www.w3.org/2000/svg" xmlns:xlink="http://www.w3.org/1999/xlink">
<g id="graph0" class="graph" transform="scale(1 1) rotate(0) translate(4 169.8)">
<title>dependencies</title>
<polygon fill="white" stroke="transparent" points="-4,4 -4,-169.8 874,-169.8 874,4 -4,4"/>
<text text-anchor="middle" x="435" y="-8.2" font-family="sans-serif" font-size="14.00">dependencies</text>
<g id="clust1" class="cluster">
<title>cluster_ClientsModule</title>
<polygon fill="none" stroke="black" stroke-dasharray="1,5" points="8,-32.8 8,-157.8 862,-157.8 862,-32.8 8,-32.8"/>
</g>
<g id="clust2" class="cluster">
<title>cluster_ClientsModule_declarations</title>
<polygon fill="none" stroke="black" points="300,-40.8 300,-92.8 854,-92.8 854,-40.8 300,-40.8"/>
</g>
<g id="clust6" class="cluster">
<title>cluster_ClientsModule_imports</title>
<polygon fill="none" stroke="black" points="16,-40.8 16,-92.8 292,-92.8 292,-40.8 16,-40.8"/>
</g>
<!-- PageAddClientComponent -->
<g id="node1" class="node">
<title>PageAddClientComponent</title>
<polygon fill="#ffffb3" stroke="black" points="846.37,-84.8 679.63,-84.8 679.63,-48.8 846.37,-48.8 846.37,-84.8"/>
<text text-anchor="middle" x="763" y="-62.6" font-family="Times,serif" font-size="14.00">PageAddClientComponent</text>
</g>
<!-- ClientsModule -->
<g id="node4" class="node">
<title>ClientsModule</title>
<polygon fill="#8dd3c7" stroke="black" points="442.72,-149.8 439.72,-153.8 418.72,-153.8 415.72,-149.8 343.28,-149.8 343.28,-113.8 442.72,-113.8 442.72,-149.8"/>
<text text-anchor="middle" x="393" y="-127.6" font-family="Times,serif" font-size="14.00">ClientsModule</text>
</g>
<!-- PageAddClientComponent&#45;&gt;ClientsModule -->
<g id="edge1" class="edge">
<title>PageAddClientComponent&#45;&gt;ClientsModule</title>
<path fill="none" stroke="black" d="M763,-85.08C763,-106.12 763,-137.8 763,-137.8 763,-137.8 452.9,-137.8 452.9,-137.8"/>
<polygon fill="black" stroke="black" points="452.9,-134.3 442.9,-137.8 452.9,-141.3 452.9,-134.3"/>
</g>
<!-- PageEditClientComponent -->
<g id="node2" class="node">
<title>PageEditClientComponent</title>
<polygon fill="#ffffb3" stroke="black" points="662.1,-84.8 495.9,-84.8 495.9,-48.8 662.1,-48.8 662.1,-84.8"/>
<text text-anchor="middle" x="579" y="-62.6" font-family="Times,serif" font-size="14.00">PageEditClientComponent</text>
</g>
<!-- PageEditClientComponent&#45;&gt;ClientsModule -->
<g id="edge2" class="edge">
<title>PageEditClientComponent&#45;&gt;ClientsModule</title>
<path fill="none" stroke="black" d="M579,-84.82C579,-102.17 579,-125.8 579,-125.8 579,-125.8 452.84,-125.8 452.84,-125.8"/>
<polygon fill="black" stroke="black" points="452.84,-122.3 442.84,-125.8 452.84,-129.3 452.84,-122.3"/>
</g>
<!-- PageListClientsComponent -->
<g id="node3" class="node">
<title>PageListClientsComponent</title>
<polygon fill="#ffffb3" stroke="black" points="477.99,-84.8 308.01,-84.8 308.01,-48.8 477.99,-48.8 477.99,-84.8"/>
<text text-anchor="middle" x="393" y="-62.6" font-family="Times,serif" font-size="14.00">PageListClientsComponent</text>
</g>
<!-- PageListClientsComponent&#45;&gt;ClientsModule -->
<g id="edge3" class="edge">
<title>PageListClientsComponent&#45;&gt;ClientsModule</title>
<path fill="none" stroke="black" d="M393,-84.91C393,-84.91 393,-103.79 393,-103.79"/>
<polygon fill="black" stroke="black" points="389.5,-103.79 393,-113.79 396.5,-103.79 389.5,-103.79"/>
</g>
<!-- ClientsRoutingModule -->
<g id="node5" class="node">
<title>ClientsRoutingModule</title>
<polygon fill="#8dd3c7" stroke="black" points="284.34,-84.8 281.34,-88.8 260.34,-88.8 257.34,-84.8 139.66,-84.8 139.66,-48.8 284.34,-48.8 284.34,-84.8"/>
<text text-anchor="middle" x="212" y="-62.6" font-family="Times,serif" font-size="14.00">ClientsRoutingModule</text>
</g>
<!-- ClientsRoutingModule&#45;&gt;ClientsModule -->
<g id="edge4" class="edge">
<title>ClientsRoutingModule&#45;&gt;ClientsModule</title>
<path fill="none" stroke="black" d="M212,-84.82C212,-102.17 212,-125.8 212,-125.8 212,-125.8 333.06,-125.8 333.06,-125.8"/>
<polygon fill="black" stroke="black" points="333.06,-129.3 343.06,-125.8 333.06,-122.3 333.06,-129.3"/>
</g>
<!-- SharedModule -->
<g id="node6" class="node">
<title>SharedModule</title>
<polygon fill="#8dd3c7" stroke="black" points="122.42,-84.8 119.42,-88.8 98.42,-88.8 95.42,-84.8 23.58,-84.8 23.58,-48.8 122.42,-48.8 122.42,-84.8"/>
<text text-anchor="middle" x="73" y="-62.6" font-family="Times,serif" font-size="14.00">SharedModule</text>
</g>
<!-- SharedModule&#45;&gt;ClientsModule -->
<g id="edge5" class="edge">
<title>SharedModule&#45;&gt;ClientsModule</title>
<path fill="none" stroke="black" d="M73,-85.08C73,-106.12 73,-137.8 73,-137.8 73,-137.8 333.35,-137.8 333.35,-137.8"/>
<polygon fill="black" stroke="black" points="333.35,-141.3 343.35,-137.8 333.35,-134.3 333.35,-141.3"/>
</g>
</g>
</svg>
