<?xml version="1.0" encoding="UTF-8" standalone="no"?>
<!DOCTYPE svg PUBLIC "-//W3C//DTD SVG 1.1//EN"
 "http://www.w3.org/Graphics/SVG/1.1/DTD/svg11.dtd">
<!-- Generated by graphviz version 2.47.3 (20210619.1520)
 -->
<!-- Title: dependencies Pages: 1 -->
<svg width="750pt" height="247pt"
 viewBox="0.00 0.00 750.00 246.80" xmlns="http://www.w3.org/2000/svg" xmlns:xlink="http://www.w3.org/1999/xlink">
<g id="graph0" class="graph" transform="scale(1 1) rotate(0) translate(4 242.8)">
<title>dependencies</title>
<polygon fill="white" stroke="transparent" points="-4,4 -4,-242.8 746,-242.8 746,4 -4,4"/>
<text text-anchor="middle" x="371" y="-8.2" font-family="sans-serif" font-size="14.00">dependencies</text>
<g id="clust1" class="cluster">
<title>cluster_AppModule</title>
<polygon fill="none" stroke="black" stroke-dasharray="1,5" points="8,-32.8 8,-230.8 734,-230.8 734,-32.8 8,-32.8"/>
</g>
<g id="clust4" class="cluster">
<title>cluster_AppModule_imports</title>
<polygon fill="none" stroke="black" points="477,-40.8 477,-92.8 726,-92.8 726,-40.8 477,-40.8"/>
</g>
<g id="clust2" class="cluster">
<title>cluster_AppModule_declarations</title>
<polygon fill="none" stroke="black" points="347,-40.8 347,-92.8 469,-92.8 469,-40.8 347,-40.8"/>
</g>
<g id="clust6" class="cluster">
<title>cluster_AppModule_bootstrap</title>
<polygon fill="none" stroke="black" points="346,-170.8 346,-222.8 470,-222.8 470,-170.8 346,-170.8"/>
</g>
<g id="clust7" class="cluster">
<title>cluster_AppModule_providers</title>
<polygon fill="none" stroke="black" points="16,-40.8 16,-92.8 339,-92.8 339,-40.8 16,-40.8"/>
</g>
<!-- AppComponent -->
<g id="node1" class="node">
<title>AppComponent</title>
<polygon fill="#ffffb3" stroke="black" points="460.94,-84.8 355.06,-84.8 355.06,-48.8 460.94,-48.8 460.94,-84.8"/>
<text text-anchor="middle" x="408" y="-62.6" font-family="Times,serif" font-size="14.00">AppComponent</text>
</g>
<!-- AppModule -->
<g id="node2" class="node">
<title>AppModule</title>
<polygon fill="#8dd3c7" stroke="black" points="449.66,-149.8 446.66,-153.8 425.66,-153.8 422.66,-149.8 366.34,-149.8 366.34,-113.8 449.66,-113.8 449.66,-149.8"/>
<text text-anchor="middle" x="408" y="-127.6" font-family="Times,serif" font-size="14.00">AppModule</text>
</g>
<!-- AppComponent&#45;&gt;AppModule -->
<g id="edge1" class="edge">
<title>AppComponent&#45;&gt;AppModule</title>
<path fill="none" stroke="black" d="M408,-84.91C408,-84.91 408,-103.79 408,-103.79"/>
<polygon fill="black" stroke="black" points="404.5,-103.79 408,-113.79 411.5,-103.79 404.5,-103.79"/>
</g>
<!-- AppComponent  -->
<g id="node5" class="node">
<title>AppComponent </title>
<polygon fill="#80b1d3" stroke="black" points="462.44,-214.8 353.56,-214.8 353.56,-178.8 462.44,-178.8 462.44,-214.8"/>
<text text-anchor="middle" x="408" y="-192.6" font-family="Times,serif" font-size="14.00">AppComponent </text>
</g>
<!-- AppModule&#45;&gt;AppComponent  -->
<g id="edge4" class="edge">
<title>AppModule&#45;&gt;AppComponent </title>
<path fill="none" stroke="black" stroke-dasharray="1,5" d="M408,-149.91C408,-149.91 408,-168.79 408,-168.79"/>
<polygon fill="black" stroke="black" points="404.5,-168.79 408,-178.79 411.5,-168.79 404.5,-168.79"/>
</g>
<!-- AppRoutingModule -->
<g id="node3" class="node">
<title>AppRoutingModule</title>
<polygon fill="#8dd3c7" stroke="black" points="718.27,-84.8 715.27,-88.8 694.27,-88.8 691.27,-84.8 589.73,-84.8 589.73,-48.8 718.27,-48.8 718.27,-84.8"/>
<text text-anchor="middle" x="654" y="-62.6" font-family="Times,serif" font-size="14.00">AppRoutingModule</text>
</g>
<!-- AppRoutingModule&#45;&gt;AppModule -->
<g id="edge2" class="edge">
<title>AppRoutingModule&#45;&gt;AppModule</title>
<path fill="none" stroke="black" d="M654,-85.08C654,-106.12 654,-137.8 654,-137.8 654,-137.8 459.73,-137.8 459.73,-137.8"/>
<polygon fill="black" stroke="black" points="459.73,-134.3 449.73,-137.8 459.73,-141.3 459.73,-134.3"/>
</g>
<!-- CoreModule -->
<g id="node4" class="node">
<title>CoreModule</title>
<polygon fill="#8dd3c7" stroke="black" points="571.26,-84.8 568.26,-88.8 547.26,-88.8 544.26,-84.8 484.74,-84.8 484.74,-48.8 571.26,-48.8 571.26,-84.8"/>
<text text-anchor="middle" x="528" y="-62.6" font-family="Times,serif" font-size="14.00">CoreModule</text>
</g>
<!-- CoreModule&#45;&gt;AppModule -->
<g id="edge3" class="edge">
<title>CoreModule&#45;&gt;AppModule</title>
<path fill="none" stroke="black" d="M528,-84.82C528,-102.17 528,-125.8 528,-125.8 528,-125.8 459.97,-125.8 459.97,-125.8"/>
<polygon fill="black" stroke="black" points="459.97,-122.3 449.97,-125.8 459.97,-129.3 459.97,-122.3"/>
</g>
<!-- ErrorsInterceptor -->
<g id="node6" class="node">
<title>ErrorsInterceptor</title>
<ellipse fill="#fdb462" stroke="black" cx="253" cy="-66.8" rx="77.54" ry="18"/>
<text text-anchor="middle" x="253" y="-62.6" font-family="Times,serif" font-size="14.00">ErrorsInterceptor</text>
</g>
<!-- ErrorsInterceptor&#45;&gt;AppModule -->
<g id="edge5" class="edge">
<title>ErrorsInterceptor&#45;&gt;AppModule</title>
<path fill="none" stroke="black" d="M253,-84.82C253,-102.17 253,-125.8 253,-125.8 253,-125.8 356.05,-125.8 356.05,-125.8"/>
<polygon fill="black" stroke="black" points="356.05,-129.3 366.05,-125.8 356.05,-122.3 356.05,-129.3"/>
</g>
<!-- JwtInterceptor -->
<g id="node7" class="node">
<title>JwtInterceptor</title>
<ellipse fill="#fdb462" stroke="black" cx="91" cy="-66.8" rx="66.61" ry="18"/>
<text text-anchor="middle" x="91" y="-62.6" font-family="Times,serif" font-size="14.00">JwtInterceptor</text>
</g>
<!-- JwtInterceptor&#45;&gt;AppModule -->
<g id="edge6" class="edge">
<title>JwtInterceptor&#45;&gt;AppModule</title>
<path fill="none" stroke="black" d="M91,-85.08C91,-106.12 91,-137.8 91,-137.8 91,-137.8 356.23,-137.8 356.23,-137.8"/>
<polygon fill="black" stroke="black" points="356.23,-141.3 366.23,-137.8 356.23,-134.3 356.23,-141.3"/>
</g>
</g>
</svg>
